<svg width="16" height="16" viewBox="0 0 16 16" fill="none" xmlns="http://www.w3.org/2000/svg">
<path d="M0.685714 3.54281H15.3143C15.6914 3.54281 16 3.23424 16 2.8571C16 2.47996 15.6914 2.17139 15.3143 2.17139H0.685714C0.308571 2.17139 0 2.47996 0 2.8571C0 3.23424 0.308571 3.54281 0.685714 3.54281Z" fill="white"/>
<path d="M0.685714 8.68563H15.3143C15.6914 8.68563 16 8.37706 16 7.99992C16 7.62278 15.6914 7.31421 15.3143 7.31421H0.685714C0.308571 7.31421 0 7.62278 0 7.99992C0 8.37706 0.308571 8.68563 0.685714 8.68563Z" fill="white"/>
<path d="M0.685714 13.8285H15.3143C15.6914 13.8285 16 13.5199 16 13.1427C16 12.7656 15.6914 12.457 15.3143 12.457H0.685714C0.308571 12.457 0 12.7656 0 13.1427C0 13.5199 0.308571 13.8285 0.685714 13.8285Z" fill="white"/>
</svg>
