<svg width="16" height="16" viewBox="0 0 16 16" fill="none" xmlns="http://www.w3.org/2000/svg">
<path fill-rule="evenodd" clip-rule="evenodd" d="M9.08532 8.00004L15.776 1.30933C16.0757 1.00962 16.0757 0.523753 15.776 0.224047C15.4763 -0.0756589 14.9904 -0.0756589 14.6907 0.224047L8.00003 6.91475L1.30933 0.22507C1.00962 -0.074636 0.523753 -0.074636 0.224047 0.22507C-0.0756589 0.524776 -0.0756589 1.01065 0.224047 1.31035L6.91475 8.00106L0.22507 14.6907C-0.074636 14.9904 -0.074636 15.4763 0.22507 15.776C0.375434 15.9254 0.570806 16.0011 0.7672 16.0011C0.963594 16.0011 1.15999 15.9264 1.30933 15.776L8.00003 9.08532L14.6907 15.776C14.8411 15.9254 15.0365 16.0011 15.2329 16.0011C15.4293 16.0011 15.6257 15.9264 15.775 15.776C16.0747 15.4763 16.0747 14.9904 15.775 14.6907L9.08532 8.00004Z" fill="white"/>
</svg>
